<svg width="62" height="62" viewBox="0 0 62 62" fill="none" xmlns="http://www.w3.org/2000/svg">
<circle cx="31" cy="31" r="30.5" fill="#3498DB" stroke="#C7DFEF"/>
<circle cx="31" cy="31" r="15.5" fill="#ECF0F1"/>
<circle cx="31" cy="31" r="3.6" fill="#3498DB" stroke="#ECF0F1"/>
<path d="M7.18936 34.9H6.37402L8.20605 29.8091H9.09348L10.9255 34.9H10.1102L8.67089 30.7338H8.63112L7.18936 34.9ZM7.32608 32.9064H9.97096V33.5527H7.32608V32.9064Z" fill="#ECF0F1"/>
<path d="M31.0374 58.15H29.3893V53.0591H31.0896C31.5884 53.0591 32.0168 53.161 32.3748 53.3648C32.7327 53.567 33.007 53.8579 33.1976 54.2374C33.3898 54.6152 33.4859 55.0684 33.4859 55.5971C33.4859 56.1274 33.389 56.5831 33.1951 56.9643C33.0028 57.3454 32.7244 57.6388 32.3598 57.8442C31.9953 58.0481 31.5544 58.15 31.0374 58.15ZM30.1574 57.4788H30.9951C31.3829 57.4788 31.7053 57.4059 31.9621 57.2601C32.219 57.1126 32.4112 56.8996 32.5388 56.6212C32.6664 56.3412 32.7302 55.9998 32.7302 55.5971C32.7302 55.1977 32.6664 54.8588 32.5388 54.5804C32.4129 54.302 32.2248 54.0907 31.9745 53.9465C31.7243 53.8023 31.4136 53.7303 31.0424 53.7303H30.1574V57.4788Z" fill="#ECF0F1"/>
<path d="M29.6993 11.96V6.86909H31.5637C31.9249 6.86909 32.2241 6.92875 32.461 7.04807C32.698 7.16573 32.8753 7.32565 32.993 7.52783C33.1107 7.72835 33.1695 7.95455 33.1695 8.20645C33.1695 8.41857 33.1305 8.59755 33.0527 8.74338C32.9748 8.88756 32.8704 9.00356 32.7394 9.09139C32.6102 9.17757 32.4677 9.24054 32.3119 9.28031V9.33003C32.4809 9.33831 32.6458 9.393 32.8066 9.49409C32.969 9.59352 33.1032 9.73521 33.2093 9.91916C33.3153 10.1031 33.3684 10.3268 33.3684 10.5903C33.3684 10.8505 33.307 11.0842 33.1844 11.2913C33.0634 11.4968 32.8762 11.66 32.6226 11.781C32.3691 11.9003 32.0451 11.96 31.6507 11.96H29.6993ZM30.4674 11.3013H31.5761C31.944 11.3013 32.2075 11.23 32.3666 11.0875C32.5257 10.945 32.6052 10.7668 32.6052 10.553C32.6052 10.3923 32.5646 10.2448 32.4834 10.1106C32.4022 9.97633 32.2862 9.86945 32.1354 9.7899C31.9863 9.71035 31.8089 9.67058 31.6034 9.67058H30.4674V11.3013ZM30.4674 9.0715H31.4965C31.6689 9.0715 31.8238 9.03836 31.9614 8.97207C32.1006 8.90578 32.2108 8.81298 32.292 8.69366C32.3749 8.57269 32.4163 8.43017 32.4163 8.26611C32.4163 8.05564 32.3425 7.87915 32.1951 7.73663C32.0476 7.59411 31.8214 7.52285 31.5164 7.52285H30.4674V9.0715Z" fill="#ECF0F1"/>
<path d="M56.2477 31.4646H55.4721C55.4423 31.2989 55.3868 31.1531 55.3055 31.0271C55.2243 30.9012 55.1249 30.7943 55.0073 30.7065C54.8896 30.6186 54.7578 30.5523 54.612 30.5076C54.4678 30.4629 54.3145 30.4405 54.1521 30.4405C53.8588 30.4405 53.5961 30.5142 53.3641 30.6617C53.1338 30.8092 52.9515 31.0255 52.8173 31.3105C52.6847 31.5956 52.6184 31.9436 52.6184 32.3545C52.6184 32.7688 52.6847 33.1185 52.8173 33.4036C52.9515 33.6886 53.1346 33.904 53.3666 34.0499C53.5986 34.1957 53.8596 34.2686 54.1497 34.2686C54.3104 34.2686 54.4629 34.2471 54.607 34.204C54.7529 34.1592 54.8846 34.0938 55.0023 34.0076C55.1199 33.9214 55.2194 33.8162 55.3006 33.6919C55.3834 33.566 55.4406 33.4218 55.4721 33.2594L56.2477 33.2619C56.2062 33.5121 56.1259 33.7424 56.0065 33.9529C55.8889 34.1617 55.7372 34.3424 55.5516 34.4948C55.3677 34.6456 55.1572 34.7625 54.9202 34.8453C54.6833 34.9282 54.4247 34.9696 54.1447 34.9696C53.7039 34.9696 53.3111 34.8652 52.9664 34.6564C52.6217 34.4459 52.3499 34.1451 52.1511 33.754C51.9539 33.363 51.8553 32.8965 51.8553 32.3545C51.8553 31.811 51.9547 31.3445 52.1536 30.955C52.3524 30.5639 52.6242 30.264 52.9689 30.0552C53.3136 29.8447 53.7055 29.7395 54.1447 29.7395C54.4148 29.7395 54.6667 29.7784 54.9004 29.8563C55.1357 29.9326 55.347 30.0452 55.5342 30.1944C55.7215 30.3419 55.8765 30.5225 55.9991 30.7363C56.1217 30.9484 56.2046 31.1912 56.2477 31.4646Z" fill="#ECF0F1"/>
</svg>
