<svg width="102" height="102" viewBox="0 0 102 102" fill="none" xmlns="http://www.w3.org/2000/svg">
<path d="M38.25 25.5C38.25 27.1744 38.5798 28.8323 39.2205 30.3792C39.8613 31.9261 40.8004 33.3317 41.9844 34.5156C43.1683 35.6996 44.5739 36.6387 46.1208 37.2795C47.6677 37.9202 49.3256 38.25 51 38.25C52.6744 38.25 54.3323 37.9202 55.8792 37.2795C57.4261 36.6387 58.8317 35.6996 60.0156 34.5156C61.1996 33.3317 62.1387 31.9261 62.7795 30.3792C63.4202 28.8323 63.75 27.1743 63.75 25.5C63.75 23.8256 63.4202 22.1677 62.7795 20.6208C62.1387 19.0739 61.1996 17.6683 60.0156 16.4844C58.8317 15.3004 57.4261 14.3613 55.8792 13.7205C54.3323 13.0798 52.6743 12.75 51 12.75C49.3256 12.75 47.6677 13.0798 46.1208 13.7205C44.5739 14.3613 43.1683 15.3004 41.9844 16.4844C40.8004 17.6683 39.8613 19.0739 39.2205 20.6208C38.5798 22.1677 38.25 23.8257 38.25 25.5L38.25 25.5Z" stroke="#F7B100" stroke-width="4"/>
<path d="M18.8608 59.0814C17.4107 59.9186 16.1398 61.0332 15.1205 62.3615C14.1012 63.6899 13.3536 65.206 12.9202 66.8233C12.4869 68.4406 12.3763 70.1274 12.5948 71.7874C12.8134 73.4475 13.3568 75.0482 14.1939 76.4982C15.0311 77.9482 16.1457 79.2192 17.4741 80.2385C18.8024 81.2578 20.3185 82.0054 21.9358 82.4388C23.5531 82.8721 25.2399 82.9827 26.9 82.7641C28.56 82.5456 30.1607 82.0022 31.6108 81.165C33.0608 80.3279 34.3317 79.2133 35.351 77.8849C36.3703 76.5566 37.118 75.0405 37.5513 73.4232C37.9847 71.8059 38.0952 70.119 37.8767 68.459C37.6581 66.799 37.1148 65.1982 36.2776 63.7482C35.4404 62.2982 34.3258 61.0272 32.9975 60.008C31.6691 58.9887 30.153 58.241 28.5357 57.8077C26.9184 57.3743 25.2316 57.2637 23.5715 57.4823C21.9115 57.7008 20.3108 58.2442 18.8608 59.0814L18.8608 59.0814Z" stroke="#F7B100" stroke-width="4"/>
<path d="M83.1392 59.0814C84.5893 59.9186 85.8602 61.0332 86.8795 62.3615C87.8988 63.6899 88.6464 65.206 89.0798 66.8233C89.5131 68.4406 89.6237 70.1274 89.4052 71.7874C89.1866 73.4475 88.6432 75.0482 87.8061 76.4982C86.9689 77.9483 85.8543 79.2192 84.5259 80.2385C83.1976 81.2578 81.6815 82.0054 80.0642 82.4388C78.4469 82.8721 76.7601 82.9827 75.1 82.7641C73.44 82.5456 71.8393 82.0022 70.3892 81.165C68.9392 80.3279 67.6683 79.2133 66.649 77.8849C65.6297 76.5566 64.882 75.0405 64.4487 73.4232C64.0153 71.8059 63.9048 70.119 64.1233 68.459C64.3419 66.799 64.8852 65.1982 65.7224 63.7482C66.5596 62.2982 67.6742 61.0272 69.0025 60.008C70.3309 58.9887 71.847 58.241 73.4643 57.8077C75.0816 57.3743 76.7684 57.2637 78.4285 57.4823C80.0885 57.7008 81.6892 58.2442 83.1392 59.0814L83.1392 59.0814Z" stroke="#F7B100" stroke-width="4"/>
<path fill-rule="evenodd" clip-rule="evenodd" d="M38.2559 25.8985C38.2518 25.7662 38.2497 25.6338 38.2497 25.5013C38.2497 24.0787 38.4878 22.6679 38.9524 21.327C38.3711 21.5335 37.7946 21.755 37.2234 21.9916C32.8557 23.8008 28.8871 26.4525 25.5441 29.7954C22.2012 33.1384 19.5495 37.107 17.7403 41.4747C15.9312 45.8424 15 50.5237 15 55.2513C15 57.4459 15.2007 59.6305 15.5967 61.7784C16.5256 60.7056 17.6284 59.794 18.8604 59.0827C18.9752 59.0164 19.0909 58.952 19.2075 58.8894C19.0695 57.684 19 56.4694 19 55.2513C19 51.049 19.8277 46.8878 21.4358 43.0054C23.044 39.123 25.4011 35.5953 28.3726 32.6239C31.2164 29.78 34.5697 27.4989 38.2559 25.8985ZM63.7435 25.8982C67.4299 27.4986 70.7834 29.7798 73.6274 32.6238C76.5989 35.5953 78.956 39.123 80.5641 43.0054C82.1723 46.8878 83 51.049 83 55.2513C83 56.4695 82.9304 57.6842 82.7925 58.8897C82.9089 58.9522 83.0244 59.0165 83.139 59.0827C84.3713 59.7941 85.4742 60.7059 86.4032 61.779C86.7993 59.6309 87 57.4461 87 55.2513C87 50.5237 86.0688 45.8424 84.2597 41.4747C82.4505 37.1069 79.7987 33.1383 76.4558 29.7954C73.1129 26.4525 69.1443 23.8008 64.7766 21.9916C64.2052 21.7549 63.6285 21.5333 63.047 21.3268C63.5116 22.6677 63.7497 24.0786 63.7497 25.5013C63.7497 25.6337 63.7476 25.766 63.7435 25.8982ZM74.3574 82.6453C72.9631 82.3773 71.6216 81.878 70.389 81.1663C70.2748 81.1004 70.1617 81.0327 70.0497 80.9633C67.9525 82.5171 65.6682 83.812 63.2459 84.8154C59.3635 86.4236 55.2023 87.2513 51 87.2513C46.7977 87.2513 42.6366 86.4236 38.7541 84.8154C36.3317 83.812 34.0473 82.517 31.9501 80.9631C31.838 81.0326 31.7248 81.1003 31.6104 81.1663C30.3779 81.8779 29.0366 82.3772 27.6425 82.6452C30.505 85.0859 33.7371 87.0668 37.2234 88.5109C41.5911 90.3201 46.2724 91.2513 51 91.2513C55.7276 91.2513 60.4089 90.3201 64.7766 88.5109C68.2629 87.0669 71.4949 85.086 74.3574 82.6453Z" fill="#F7B100"/>
</svg>
