<svg width="114" height="114" viewBox="0 0 114 114" fill="none" xmlns="http://www.w3.org/2000/svg">
<path d="M98.2933 82.3145C99.9905 75.9806 100.208 69.3412 98.9286 62.9099C97.6493 56.4786 94.9077 50.4277 90.9159 45.2254C86.924 40.0232 81.7889 35.8089 75.9078 32.9087C70.0268 30.0085 63.5573 28.5 57 28.5C50.4427 28.5 43.9732 30.0085 38.0922 32.9087C32.2111 35.8089 27.076 40.0232 23.0841 45.2254C19.0923 50.4277 16.3507 56.4786 15.0714 62.9099C13.7922 69.3412 14.0095 75.9806 15.7067 82.3145" stroke="#F7B100" stroke-width="4" stroke-linecap="round"/>
<path d="M51.9052 80.6604C47.8307 80.9964 44.178 77.03 43.7468 71.801C43.3155 66.5721 46.2689 62.0607 50.3434 61.7247C55.846 61.2708 89.3121 65.6242 98.3217 66.8178C98.853 66.8882 98.9133 67.6185 98.4006 67.775C89.7084 70.4287 57.4078 80.2065 51.9052 80.6604Z" stroke="#F7B100" stroke-width="4"/>
<path d="M57 28.5V38" stroke="#F7B100" stroke-width="4" stroke-linecap="round"/>
<path d="M26.771 41.0198L33.4885 47.7373" stroke="#F7B100" stroke-width="4" stroke-linecap="round"/>
<path d="M87.229 41.0198L80.5115 47.7373" stroke="#F7B100" stroke-width="4" stroke-linecap="round"/>
<path d="M98.2935 82.3132L89.1172 79.8545" stroke="#F7B100" stroke-width="4" stroke-linecap="round"/>
<path d="M15.7065 82.3132L24.8828 79.8545" stroke="#F7B100" stroke-width="4" stroke-linecap="round"/>
</svg>
